<?xml version='1.0' encoding='utf8'?>
<svg class="toyplot-canvas-Canvas" xmlns:toyplot="http://www.sandia.gov/toyplot" xmlns:xlink="http://www.w3.org/1999/xlink" xmlns="http://www.w3.org/2000/svg" width="1000.0px" height="525.0px" viewBox="0 0 1000.0 525.0" preserveAspectRatio="xMidYMid meet" style="background-color:transparent;border-color:#292724;border-style:none;border-width:1.0;fill:rgb(16.1%,15.3%,14.1%);fill-opacity:1.0;font-family:Helvetica;font-size:12px;opacity:1.0;stroke:rgb(16.1%,15.3%,14.1%);stroke-opacity:1.0;stroke-width:1.0" id="tc38731ccc5114ce48110bd78efb8a522"><g class="toyplot-coordinates-Cartesian" id="ta14bf00944044a858b81afe4f60506b9"><clipPath id="tbc407201ebb74264bfbc55528788aa69"><rect x="30.0" y="30.0" width="940.0" height="465.0" /></clipPath><g clip-path="url(#tbc407201ebb74264bfbc55528788aa69)"><g class="toytree-mark-Toytree" id="t8eaddc11c8764a24b28989756f2459d4"><g class="toytree-Edges" style="fill:none;stroke:rgb(14.9%,14.9%,14.9%);stroke-linecap:round;stroke-opacity:1;stroke-width:2"><path d="M 51.4 116.6 L 51.4 171.3 L 99.2 171.3" id="48,47" /><path d="M 99.2 171.3 L 99.2 105.8 L 187.7 105.8" id="47,46" /><path d="M 99.2 171.3 L 99.2 236.8 L 168.9 236.8" id="47,45" /><path d="M 187.7 105.8 L 187.7 87.0 L 572.1 87.0" id="46,44" /><path d="M 187.7 105.8 L 187.7 124.6 L 229.7 124.6" id="46,43" /><path d="M 168.9 236.8 L 168.9 187.3 L 445.7 187.3" id="45,42" /><path d="M 168.9 236.8 L 168.9 286.3 L 363.2 286.3" id="45,41" /><path d="M 229.7 124.6 L 229.7 137.1 L 289.9 137.1" id="43,40" /><path d="M 445.7 187.3 L 445.7 170.6 L 550.3 170.6" id="42,39" /><path d="M 445.7 187.3 L 445.7 204.0 L 509.0 204.0" id="42,38" /><path d="M 363.2 286.3 L 363.2 241.6 L 421.2 241.6" id="41,37" /><path d="M 363.2 286.3 L 363.2 330.9 L 441.8 330.9" id="41,36" /><path d="M 421.2 241.6 L 421.2 254.1 L 478.3 254.1" id="37,35" /><path d="M 441.8 330.9 L 441.8 291.8 L 494.8 291.8" id="36,34" /><path d="M 441.8 330.9 L 441.8 370.1 L 465.6 370.1" id="36,33" /><path d="M 494.8 291.8 L 494.8 304.3 L 562.3 304.3" id="34,32" /><path d="M 465.6 370.1 L 465.6 341.9 L 532.5 341.9" id="33,31" /><path d="M 465.6 370.1 L 465.6 398.3 L 514.3 398.3" id="33,30" /><path d="M 532.5 341.9 L 532.5 354.4 L 568.2 354.4" id="31,29" /><path d="M 514.3 398.3 L 514.3 417.1 L 559.5 417.1" id="30,28" /><path d="M 559.5 417.1 L 559.5 438.0 L 581.6 438.0" id="28,27" /><path d="M 581.6 438.0 L 581.6 421.3 L 629.5 421.3" id="27,26" /><path d="M 581.6 438.0 L 581.6 454.7 L 613.8 454.7" id="27,25" /><path d="M 51.4 116.6 L 51.4 61.9 L 365.2 61.9" id="48,24" /><path d="M 572.1 87.0 L 572.1 78.6 L 662.4 78.6" id="44,23" /><path d="M 572.1 87.0 L 572.1 95.3 L 662.4 95.3" id="44,22" /><path d="M 229.7 124.6 L 229.7 112.0 L 301.5 112.0" id="43,21" /><path d="M 289.9 137.1 L 289.9 128.8 L 471.3 128.8" id="40,20" /><path d="M 289.9 137.1 L 289.9 145.5 L 386.4 145.5" id="40,19" /><path d="M 550.3 170.6 L 550.3 162.2 L 662.4 162.2" id="39,18" /><path d="M 550.3 170.6 L 550.3 178.9 L 662.4 178.9" id="39,17" /><path d="M 509.0 204.0 L 509.0 195.6 L 662.4 195.6" id="38,16" /><path d="M 509.0 204.0 L 509.0 212.3 L 662.4 212.3" id="38,15" /><path d="M 421.2 241.6 L 421.2 229.1 L 481.9 229.1" id="37,14" /><path d="M 478.3 254.1 L 478.3 245.8 L 662.4 245.8" id="35,13" /><path d="M 478.3 254.1 L 478.3 262.5 L 662.4 262.5" id="35,12" /><path d="M 494.8 291.8 L 494.8 279.2 L 662.4 279.2" id="34,11" /><path d="M 562.3 304.3 L 562.3 295.9 L 662.4 295.9" id="32,10" /><path d="M 562.3 304.3 L 562.3 312.7 L 662.4 312.7" id="32,9" /><path d="M 532.5 341.9 L 532.5 329.4 L 662.4 329.4" id="31,8" /><path d="M 568.2 354.4 L 568.2 346.1 L 662.4 346.1" id="29,7" /><path d="M 568.2 354.4 L 568.2 362.8 L 662.4 362.8" id="29,6" /><path d="M 514.3 398.3 L 514.3 379.5 L 662.4 379.5" id="30,5" /><path d="M 559.5 417.1 L 559.5 396.2 L 662.4 396.2" id="28,4" /><path d="M 629.5 421.3 L 629.5 413.0 L 662.4 413.0" id="26,3" /><path d="M 629.5 421.3 L 629.5 429.7 L 662.4 429.7" id="26,2" /><path d="M 613.8 454.7 L 613.8 446.4 L 662.4 446.4" id="25,1" /><path d="M 613.8 454.7 L 613.8 463.1 L 662.4 463.1" id="25,0" /></g><g class="toytree-AlignEdges" style="stroke:rgb(66.3%,66.3%,66.3%);stroke-dasharray:2, 4;stroke-linecap:round;stroke-opacity:1.0;stroke-width:2"><path d="M 662.4 463.1 L 662.4 463.1" /><path d="M 662.4 446.4 L 662.4 446.4" /><path d="M 662.4 429.7 L 662.4 429.7" /><path d="M 662.4 413.0 L 662.4 413.0" /><path d="M 662.4 396.2 L 662.4 396.2" /><path d="M 662.4 379.5 L 662.4 379.5" /><path d="M 662.4 362.8 L 662.4 362.8" /><path d="M 662.4 346.1 L 662.4 346.1" /><path d="M 662.4 329.4 L 662.4 329.4" /><path d="M 662.4 312.7 L 662.4 312.7" /><path d="M 662.4 295.9 L 662.4 295.9" /><path d="M 662.4 279.2 L 662.4 279.2" /><path d="M 662.4 262.5 L 662.4 262.5" /><path d="M 662.4 245.8 L 662.4 245.8" /><path d="M 662.4 229.1 L 481.9 229.1" /><path d="M 662.4 212.3 L 662.4 212.3" /><path d="M 662.4 195.6 L 662.4 195.6" /><path d="M 662.4 178.9 L 662.4 178.9" /><path d="M 662.4 162.2 L 662.4 162.2" /><path d="M 662.4 145.5 L 386.4 145.5" /><path d="M 662.4 128.8 L 471.3 128.8" /><path d="M 662.4 112.0 L 301.5 112.0" /><path d="M 662.4 95.3 L 662.4 95.3" /><path d="M 662.4 78.6 L 662.4 78.6" /><path d="M 662.4 61.9 L 365.2 61.9" /></g><g class="toytree-TipLabels" style="fill:rgb(14.9%,14.9%,14.9%);fill-opacity:1.0;font-family:helvetica;font-size:11px;font-weight:normal;stroke:none;white-space:pre"><g transform="translate(662.36,463.11)rotate(0)"><a href="https://glottolog.org/resource/languoid/id/inor1238#############"><text x="15.00" y="2.81" style="" fill="#0000ff">Innemor - Inoric [inor1238#############]</text></a></g><g transform="translate(662.36,446.39)rotate(0)"><a href="https://glottolog.org/resource/languoid/id/mesm1243#############"><text x="15.00" y="2.81" style="" fill="#0000ff">Mesmes - Mesmes [mesm1243#############]</text></a></g><g transform="translate(662.36,429.67)rotate(0)"><a href="https://glottolog.org/resource/languoid/id/seba1251#############"><text x="15.00" y="2.81" style="" fill="#0000ff">Geto - Sebat Bet Gurage [seba1251#############]</text></a></g><g transform="translate(662.36,412.95)rotate(0)"><a href="https://glottolog.org/resource/languoid/id/chah1248#############"><text x="15.00" y="2.81" style="" fill="#0000ff">Chaha - Chaha [chah1248#############]</text></a></g><g transform="translate(662.36,396.24)rotate(0)"><a href="https://glottolog.org/resource/languoid/id/mesq1240#############"><text x="15.00" y="2.81" style="" fill="#0000ff">Mesqan - Mesqan [mesq1240#############]</text></a></g><g transform="translate(662.36,379.52)rotate(0)"><a href="https://glottolog.org/resource/languoid/id/sodd1242#############"><text x="15.00" y="2.81" style="" fill="#0000ff">Soddo - Soddo [sodd1242#############]</text></a></g><g transform="translate(662.36,362.80)rotate(0)"><a href="https://glottolog.org/resource/languoid/id/zayy1238#############"><text x="15.00" y="2.81" style="" fill="#0000ff">Zway - Zay [zayy1238#############]</text></a></g><g transform="translate(662.36,346.09)rotate(0)"><a href="https://glottolog.org/resource/languoid/id/hara1271#############"><text x="15.00" y="2.81" style="" fill="#0000ff">Harari - Harari [hara1271#############]</text></a></g><g transform="translate(662.36,329.37)rotate(0)"><a href="https://glottolog.org/resource/languoid/id/wola1253#############"><text x="15.00" y="2.81" style="" fill="#0000ff">Walani - Wolane [wola1253#############]</text></a></g><g transform="translate(662.36,312.65)rotate(0)"><a href="https://glottolog.org/resource/languoid/id/amha1245#############"><text x="15.00" y="2.81" style="" fill="#0000ff">Amharic - Amharic [amha1245#############]</text></a></g><g transform="translate(662.36,295.93)rotate(0)"><a href="https://glottolog.org/resource/languoid/id/argo1244#############"><text x="15.00" y="2.81" style="" fill="#0000ff">Argobba - Argobba [argo1244#############]</text></a></g><g transform="translate(662.36,279.22)rotate(0)"><a href="https://glottolog.org/resource/languoid/id/gafa1240#############"><text x="15.00" y="2.81" style="" fill="#0000ff">Gafat - Gafat [gafa1240#############]</text></a></g><g transform="translate(662.36,262.50)rotate(0)"><a href="https://glottolog.org/resource/languoid/id/tigr1271#############"><text x="15.00" y="2.81" style="" fill="#0000ff">Tigrinya - Tigrinya [tigr1271#############]</text></a></g><g transform="translate(662.36,245.78)rotate(0)"><a href="https://glottolog.org/resource/languoid/id/tigr1270#############"><text x="15.00" y="2.81" style="" fill="#0000ff">Tigre - Tigre [tigr1270#############]</text></a></g><g transform="translate(662.36,229.07)rotate(0)"><a href="https://glottolog.org/resource/languoid/id/geez1241#############"><text x="15.00" y="2.81" style="" fill="#0000ff">Geez - Geez [geez1241#############]</text></a></g><g transform="translate(662.36,212.35)rotate(0)"><a href="https://glottolog.org/resource/languoid/id/sheh1240#############"><text x="15.00" y="2.81" style="" fill="#0000ff">Jibbali - Jibbali [sheh1240#############]</text></a></g><g transform="translate(662.36,195.63)rotate(0)"><a href="https://glottolog.org/resource/languoid/id/soqo1240#############"><text x="15.00" y="2.81" style="" fill="#0000ff">Soqotri - Soqotri [soqo1240#############]</text></a></g><g transform="translate(662.36,178.91)rotate(0)"><a href="https://glottolog.org/resource/languoid/id/mehr1241#############"><text x="15.00" y="2.81" style="" fill="#0000ff">Mehri - Mehri [mehr1241#############]</text></a></g><g transform="translate(662.36,162.20)rotate(0)"><a href="https://glottolog.org/resource/languoid/id/hars1241#############"><text x="15.00" y="2.81" style="" fill="#0000ff">Harsusi - Harsusi [hars1241#############]</text></a></g><g transform="translate(662.36,145.48)rotate(0)"><a href="https://glottolog.org/resource/languoid/id/hebr1245#############"><text x="15.00" y="2.81" style="" fill="#0000ff">Hebrew - Modern Hebrew [hebr1245#############]</text></a></g><g transform="translate(662.36,128.76)rotate(0)"><a href="https://glottolog.org/resource/languoid/id/impe1235#############"><text x="15.00" y="2.81" style="" fill="#0000ff">Aramaic - Imperial Aramaic (700-300 BCE) [impe1235#############]</text></a></g><g transform="translate(662.36,112.05)rotate(0)"><a href="https://glottolog.org/resource/languoid/id/ugar1238#############"><text x="15.00" y="2.81" style="" fill="#0000ff">Ugaritic - Ugaritic [ugar1238#############]</text></a></g><g transform="translate(662.36,95.33)rotate(0)"><a href="https://glottolog.org/resource/languoid/id/stan1318#############"><text x="15.00" y="2.81" style="" fill="#0000ff">Ogaden_Arabic - Standard Arabic [stan1318#############]</text></a></g><g transform="translate(662.36,78.61)rotate(0)"><a href="https://glottolog.org/resource/languoid/id/moro1292#############"><text x="15.00" y="2.81" style="" fill="#0000ff">Moroccan_Arabic - Moroccan Arabic [moro1292#############]</text></a></g><g transform="translate(662.36,61.89)rotate(0)"><a href="https://glottolog.org/resource/languoid/id/akka1240#############"><text x="15.00" y="2.81" style="" fill="#0000ff">Akkadian - Akkadian [akka1240#############]</text></a></g></g></g></g><g class="toyplot-coordinates-Axis" id="t5cc0f21a165f4dd5b8fe11a8bdaae096" transform="translate(50.0,475.0)translate(0,20.0)"><line x1="1.357777348653046" y1="0" x2="612.3575842425413" y2="0" style="" /><g><line x1="612.3575842425413" y1="0" x2="612.3575842425413" y2="-5" style="" /><line x1="544.4687168098872" y1="0" x2="544.4687168098872" y2="-5" style="" /><line x1="476.5798493772328" y1="0" x2="476.5798493772328" y2="-5" style="" /><line x1="408.6909819445786" y1="0" x2="408.6909819445786" y2="-5" style="" /><line x1="340.80211451192434" y1="0" x2="340.80211451192434" y2="-5" style="" /><line x1="272.91324707927015" y1="0" x2="272.91324707927015" y2="-5" style="" /><line x1="205.02437964661584" y1="0" x2="205.02437964661584" y2="-5" style="" /><line x1="137.13551221396162" y1="0" x2="137.13551221396162" y2="-5" style="" /><line x1="69.24664478130738" y1="0" x2="69.24664478130738" y2="-5" style="" /><line x1="1.3577773486531426" y1="0" x2="1.3577773486531426" y2="-5" style="" /></g><g><g transform="translate(612.3575842425413,6)"><text x="-2.78" y="8.555" style="fill:rgb(16.1%,15.3%,14.1%);fill-opacity:1.0;font-family:helvetica;font-size:10.0px;font-weight:normal;stroke:none;vertical-align:baseline;white-space:pre">0</text></g><g transform="translate(544.4687168098872,6)"><text x="-8.34" y="8.555" style="fill:rgb(16.1%,15.3%,14.1%);fill-opacity:1.0;font-family:helvetica;font-size:10.0px;font-weight:normal;stroke:none;vertical-align:baseline;white-space:pre">640</text></g><g transform="translate(476.5798493772328,6)"><text x="-11.12" y="8.555" style="fill:rgb(16.1%,15.3%,14.1%);fill-opacity:1.0;font-family:helvetica;font-size:10.0px;font-weight:normal;stroke:none;vertical-align:baseline;white-space:pre">1279</text></g><g transform="translate(408.6909819445786,6)"><text x="-11.12" y="8.555" style="fill:rgb(16.1%,15.3%,14.1%);fill-opacity:1.0;font-family:helvetica;font-size:10.0px;font-weight:normal;stroke:none;vertical-align:baseline;white-space:pre">1919</text></g><g transform="translate(340.80211451192434,6)"><text x="-11.12" y="8.555" style="fill:rgb(16.1%,15.3%,14.1%);fill-opacity:1.0;font-family:helvetica;font-size:10.0px;font-weight:normal;stroke:none;vertical-align:baseline;white-space:pre">2559</text></g><g transform="translate(272.91324707927015,6)"><text x="-11.12" y="8.555" style="fill:rgb(16.1%,15.3%,14.1%);fill-opacity:1.0;font-family:helvetica;font-size:10.0px;font-weight:normal;stroke:none;vertical-align:baseline;white-space:pre">3198</text></g><g transform="translate(205.02437964661584,6)"><text x="-11.12" y="8.555" style="fill:rgb(16.1%,15.3%,14.1%);fill-opacity:1.0;font-family:helvetica;font-size:10.0px;font-weight:normal;stroke:none;vertical-align:baseline;white-space:pre">3838</text></g><g transform="translate(137.13551221396162,6)"><text x="-11.12" y="8.555" style="fill:rgb(16.1%,15.3%,14.1%);fill-opacity:1.0;font-family:helvetica;font-size:10.0px;font-weight:normal;stroke:none;vertical-align:baseline;white-space:pre">4478</text></g><g transform="translate(69.24664478130738,6)"><text x="-11.12" y="8.555" style="fill:rgb(16.1%,15.3%,14.1%);fill-opacity:1.0;font-family:helvetica;font-size:10.0px;font-weight:normal;stroke:none;vertical-align:baseline;white-space:pre">5117</text></g><g transform="translate(1.3577773486531426,6)"><text x="-11.12" y="8.555" style="fill:rgb(16.1%,15.3%,14.1%);fill-opacity:1.0;font-family:helvetica;font-size:10.0px;font-weight:normal;stroke:none;vertical-align:baseline;white-space:pre">5757</text></g></g><g class="toyplot-coordinates-Axis-coordinates" style="visibility:hidden" transform=""><line x1="0" x2="0" y1="-3.0" y2="4.5" style="stroke:rgb(43.9%,50.2%,56.5%);stroke-opacity:1.0;stroke-width:1.0" /><text x="0" y="-6" style="alignment-baseline:alphabetic;fill:rgb(43.9%,50.2%,56.5%);fill-opacity:1.0;font-size:10px;font-weight:normal;stroke:none;text-anchor:middle" /></g></g><g transform="translate(500.0,42.0)"><text x="-270.774" y="-4.823" style="fill:rgb(16.1%,15.3%,14.1%);fill-opacity:1.0;font-family:helvetica;font-size:14.0px;font-weight:bold;stroke:none;vertical-align:baseline;white-space:pre">Summary tree of a Bayesian analysis of the Semitic family with branches in years</text></g></g></svg>